<svg fill="none" height="440" viewBox="0 0 1505 440" width="1505" xmlns="http://www.w3.org/2000/svg"><path d="m289.344 186.707v-155.4547c-.002-2.9838-1.188-5.8449-3.298-7.9547s-4.971-3.2959-7.955-3.2976h-53.573v214.243c.001 1.906.568 3.77 1.628 5.354 1.06 1.585 2.565 2.819 4.327 3.549 1.761.729 3.699.92 5.569.549 1.869-.372 3.587-1.289 4.936-2.636l44.128-44.122c1.344-1.343 2.41-2.938 3.137-4.693.727-1.756 1.101-3.637 1.101-5.537z" fill="#ff0036"/><path d="m224.518 20h-101.881c-1.9-.0004-3.781.3737-5.536 1.1007-1.756.7271-3.351 1.7929-4.694 3.1366l-44.1215 44.1281c-1.3475 1.3492-2.2649 3.0676-2.6361 4.938s-.1797 3.8089.5504 5.5704c.7301 1.7616 1.9659 3.2672 3.5515 4.3266 1.5855 1.0594 3.4494 1.6251 5.3563 1.6255h149.4104z" fill="#ffc900"/><path d="m166.701 309.344h-155.4487c-1.47794.001-2.94152-.29-4.30709-.855-1.36556-.565-2.60634-1.394-3.65138-2.439s-1.87384-2.286-2.439018-3.651c-.56518-1.366-.8556554-2.829-.85481016-4.307v-53.574h214.23699816c1.908-.001 3.773.564 5.36 1.624s2.824 2.566 3.554 4.329c.731 1.763.922 3.703.549 5.575-.372 1.871-1.291 3.59-2.641 4.939l-44.128 44.122c-1.344 1.343-2.938 2.409-4.694 3.136-1.755.727-3.636 1.101-5.536 1.101z" fill="#1904da"/><path d="m.00000027 244.518v-101.875c-.00036639-1.9.37366873-3.781 1.10071973-5.536.72706-1.756 1.79288-3.351 3.13656-4.694l44.12172-44.1279c1.3489-1.3497 3.0678-2.269 4.9393-2.6415s3.8114-.1815 5.5743.5488c1.7629.7304 3.2695 1.9673 4.3293 3.5541 1.0597 1.5869 1.6249 3.4525 1.624 5.3607v149.4108z" fill="#08b1d5"/><g fill="#07242d"><path d="m629.986 295.076h-130.398c-71.905 0-130.398-58.512-130.398-130.404 0-71.8923 58.512-130.3977 130.398-130.3977s130.398 58.5118 130.398 130.3977zm-130.398-207.8453c-20.417.186-39.935 8.4273-54.307 22.9303-14.372 14.504-22.435 34.096-22.435 54.514s8.063 40.01 22.435 54.514c14.372 14.503 33.89 22.745 54.307 22.931h77.441v-77.448c-.023-20.531-8.19-40.215-22.708-54.733-14.518-14.5179-34.201-22.6845-54.733-22.7083z"/><path d="m1505 295.076h-130.4c-71.9 0-130.4-58.512-130.4-130.404 0-71.8923 58.52-130.3977 130.4-130.3977 71.89 0 130.4 58.5118 130.4 130.3977zm-130.4-207.8453c-20.42.186-39.93 8.4273-54.3 22.9303-14.38 14.504-22.44 34.096-22.44 54.514s8.06 40.01 22.44 54.514c14.37 14.503 33.88 22.745 54.3 22.931h77.44v-77.448c-.02-20.531-8.19-40.215-22.7-54.733-14.52-14.5179-34.21-22.6845-54.74-22.7083z"/><path d="m1082.91 295.128c-71.94 0-130.454-58.512-130.454-130.456v-122.3732h52.974v122.3732c0 20.549 8.16 40.256 22.7 54.787 14.53 14.53 34.23 22.693 54.78 22.693s40.26-8.163 54.79-22.693c14.53-14.531 22.69-34.238 22.69-54.787v-122.3732h52.98v122.3732c0 71.937-58.53 130.456-130.46 130.456z"/><path d="m791.221 34.2743c-71.906 0-130.405 58.5118-130.405 130.3977 0 71.886 58.512 130.404 130.405 130.404l52.962-52.956h-52.95c-15.318.001-30.292-4.54-43.029-13.049-12.737-8.51-22.665-20.605-28.528-34.757-5.862-14.151-7.397-29.724-4.409-44.747 2.987-15.024 10.363-28.825 21.194-39.657 10.831-10.8315 24.631-18.2083 39.654-21.1972 15.024-2.9888 30.596-1.4555 44.748 4.4062 14.153 5.8616 26.249 15.788 34.759 28.525 8.51 12.736 13.053 27.71 13.053 43.028v254.854h52.956v-254.854c-.013-71.8988-58.512-130.3977-130.41-130.3977z"/></g></svg>