<?xml version="1.0" encoding="UTF-8"?>
<!-- Generator: Adobe Illustrator 27.0.0, SVG Export Plug-In . SVG Version: 6.00 Build 0)  -->
<svg xmlns="http://www.w3.org/2000/svg" xmlns:xlink="http://www.w3.org/1999/xlink" version="1.1" id="Layer_1" x="0px" y="0px" viewBox="0 0 350 93.07" style="enable-background:new 0 0 350 93.07;" xml:space="preserve">
<style type="text/css">
	.st0{fill:#FFFFFF;}
	.st1{fill:#2A48DF;}
	.st2{fill:#6D93F6;}
</style>
<g>
	<g>
		<path class="st0" d="M128.07,65.58c-5.14-5.24-7.71-11.62-7.71-19.32s2.57-14.08,7.71-19.32c5.24-5.24,11.72-7.81,19.43-7.81    c9.97,0,18.81,5.14,23.03,13.26l-11.41,6.68c-2.06-4.21-6.48-6.89-11.72-6.89c-7.91,0-13.77,5.86-13.77,14.08    c0,4.01,1.34,7.4,3.91,10.07c2.57,2.57,5.86,3.91,9.87,3.91c5.35,0,9.76-2.57,11.82-6.78l11.51,6.58    c-4.52,8.12-13.26,13.36-23.23,13.36C139.79,73.39,133.31,70.82,128.07,65.58z"></path>
		<path class="st0" d="M201.36,73.39c-7.61,0-14.08-2.57-19.32-7.81s-7.81-11.72-7.81-19.32s2.57-13.98,7.81-19.22    s11.72-7.91,19.32-7.91c7.61,0,14.08,2.67,19.32,7.91c5.24,5.24,7.91,11.62,7.91,19.22s-2.67,14.08-7.91,19.32    C215.44,70.82,208.97,73.39,201.36,73.39z M201.36,60.44c4.01,0,7.3-1.34,9.97-4.01c2.67-2.67,4.01-6.06,4.01-10.18    s-1.34-7.5-4.01-10.18c-2.67-2.67-5.96-4.01-9.97-4.01c-4.01,0-7.3,1.34-9.97,4.01c-2.57,2.67-3.91,6.06-3.91,10.18    s1.34,7.5,3.91,10.18C194.06,59.1,197.35,60.44,201.36,60.44z"></path>
		<path class="st0" d="M276.92,0h13.26v71.95h-13.26v-6.06c-3.91,5.04-9.46,7.5-16.65,7.5c-6.89,0-12.85-2.57-17.78-7.81    c-4.83-5.24-7.3-11.72-7.3-19.32s2.47-13.98,7.3-19.22c4.93-5.24,10.9-7.91,17.78-7.91c7.19,0,12.75,2.47,16.65,7.5V0z     M262.73,60.75c4.11,0,7.5-1.34,10.18-4.01c2.67-2.78,4.01-6.27,4.01-10.48s-1.34-7.71-4.01-10.38    c-2.67-2.78-6.06-4.11-10.18-4.11s-7.5,1.34-10.28,4.11c-2.67,2.67-4.01,6.17-4.01,10.38s1.34,7.71,4.01,10.48    C255.23,59.41,258.62,60.75,262.73,60.75z"></path>
		<path class="st0" d="M335.82,20.56H350l-18.71,51.39c-5.35,14.8-13.98,21.28-27.14,20.56V80.18c7.09,0.1,11-2.88,13.47-9.87    l-21.07-49.75h14.49l13.36,34.54L335.82,20.56z"></path>
	</g>
	<path class="st1" d="M80.87,16.56L80.87,16.56c-15.97-2.93-32.34-2.93-48.31,0c-1.37,0.25-20.09,6.87-20.09,6.87l0.02,0.01   C5.11,26,0,32.97,0,40.98v12.34c0,7.53,4.52,14.14,11.18,17.03l45.53,22.71V76.12c8.09,0,16.17-0.73,24.16-2.2h0   C91.37,71.99,99,62.83,99,52.15V38.32C99,27.64,91.37,18.49,80.87,16.56z M89.68,52.15c0,6.18-4.41,11.48-10.5,12.6   c-7.39,1.36-14.95,2.05-22.47,2.05s-15.08-0.69-22.47-2.05c-6.08-1.12-10.5-6.42-10.5-12.6V38.32c0-6.18,4.41-11.48,10.5-12.6   c7.39-1.36,14.95-2.05,22.47-2.05s15.08,0.69,22.47,2.05c6.08,1.12,10.5,6.42,10.5,12.6V52.15z"></path>
	<g>
		<path class="st2" d="M42.69,54.51c-2.14,0-3.88-1.74-3.88-3.88V39.84c0-2.14,1.74-3.88,3.88-3.88s3.88,1.74,3.88,3.88v10.79    C46.57,52.77,44.83,54.51,42.69,54.51z"></path>
	</g>
	<g>
		<path class="st2" d="M70.68,54.51c-2.14,0-3.88-1.74-3.88-3.88V39.84c0-2.14,1.74-3.88,3.88-3.88s3.88,1.74,3.88,3.88v10.79    C74.56,52.77,72.82,54.51,70.68,54.51z"></path>
	</g>
</g>
</svg>
