<svg xmlns="http://www.w3.org/2000/svg" width="129.393" height="43.362" viewBox="0 0 129.393 43.362">
    <g id="logo" transform="translate(-348.46 -273.985)">
        <path id="Path_92253" data-name="Path 92253"
            d="M373.542,274.971v13.77a15.891,15.891,0,1,0-9.346,28.706A15.445,15.445,0,0,0,379.933,301.6V274.971Zm-.055,26.629c0,5.639-3.907,9.73-9.291,9.73s-9.29-4.092-9.29-9.73c0-5.547,3.994-9.73,9.29-9.73s9.291,4.183,9.291,9.73"
            transform="translate(0 -0.099)" fill="#f7b52b" />
        <rect id="Rectangle_4933" data-name="Rectangle 4933" width="15.06" height="5.921"
            transform="translate(387.749 274.872)" fill="#f7b52b" />
        <path id="Path_92254" data-name="Path 92254"
            d="M397.68,308.636a5.37,5.37,0,0,0,1.589,3.35,5.523,5.523,0,0,0,4.129,1.444,4.6,4.6,0,0,0,3.149-.952,2.961,2.961,0,0,0,1.069-2.283,2.675,2.675,0,0,0-.809-1.964,4.829,4.829,0,0,0-2.484-1.155l-4.159-.925a9.932,9.932,0,0,1-5.661-3.032,7.7,7.7,0,0,1-1.907-5.171,7.817,7.817,0,0,1,.809-3.5,9.461,9.461,0,0,1,2.2-2.889,10.464,10.464,0,0,1,3.263-1.964,11.249,11.249,0,0,1,4.073-.723,12.779,12.779,0,0,1,4.94.839,10.621,10.621,0,0,1,3.263,2.051,8.215,8.215,0,0,1,1.878,2.57,10.06,10.06,0,0,1,.78,2.4l-5.66,1.618a8.636,8.636,0,0,0-.407-1.328,4.153,4.153,0,0,0-.895-1.386,4.976,4.976,0,0,0-1.558-1.07,5.667,5.667,0,0,0-2.341-.433,4.356,4.356,0,0,0-2.916.953,2.9,2.9,0,0,0-1.128,2.282,2.579,2.579,0,0,0,.75,1.907,4.086,4.086,0,0,0,2.08,1.039l4.275.867a10.985,10.985,0,0,1,6.037,3.149,7.815,7.815,0,0,1,2.051,5.4,8.27,8.27,0,0,1-.664,3.206,8.961,8.961,0,0,1-1.964,2.888,9.748,9.748,0,0,1-3.321,2.109,12.55,12.55,0,0,1-4.68.809,13.827,13.827,0,0,1-5.2-.867,11.282,11.282,0,0,1-3.525-2.166,9.167,9.167,0,0,1-2.079-2.772,8.275,8.275,0,0,1-.81-2.687Z"
            transform="translate(-4.345 -1.491)" fill="#3459a5" />
        <path id="Path_92255" data-name="Path 92255"
            d="M422.788,278.376a4.244,4.244,0,0,1,1.271-3.121,4.173,4.173,0,0,1,3.062-1.271,4.341,4.341,0,0,1,4.391,4.391,4.149,4.149,0,0,1-1.272,3.09,4.285,4.285,0,0,1-3.119,1.241,4.217,4.217,0,0,1-3.062-1.241,4.149,4.149,0,0,1-1.271-3.09m1.04,9.878h6.644v28.134h-6.644Z"
            transform="translate(-7.443)" fill="#3459a5" />
        <path id="Path_92256" data-name="Path 92256"
            d="M449.076,288.884h5.834v5.95h-5.834V307.89a3.6,3.6,0,0,0,.866,2.686,3.785,3.785,0,0,0,2.715.838,11.014,11.014,0,0,0,1.388-.086,9.211,9.211,0,0,0,.925-.145v5.546c-.194.078-.617.2-1.271.376a11.729,11.729,0,0,1-2.832.26,8.482,8.482,0,0,1-6.181-2.195,8.239,8.239,0,0,1-2.252-6.182V294.834h-5.2v-5.95h1.444a4.017,4.017,0,0,0,3.294-1.271,4.772,4.772,0,0,0,1.039-3.12v-4.217h6.066Z"
            transform="translate(-8.89 -0.63)" fill="#3459a5" />
        <path id="Path_92257" data-name="Path 92257"
            d="M488.852,309.849a13.1,13.1,0,0,1-1.676,3.466,11.852,11.852,0,0,1-2.714,2.831,12.98,12.98,0,0,1-3.7,1.907,14.579,14.579,0,0,1-4.623.693,15.022,15.022,0,0,1-5.487-1.011,13.262,13.262,0,0,1-4.563-2.946,14.4,14.4,0,0,1-3.149-4.737,16.255,16.255,0,0,1-1.184-6.385,15.683,15.683,0,0,1,1.127-6.065,14.4,14.4,0,0,1,3.033-4.651,13.746,13.746,0,0,1,4.389-3,12.882,12.882,0,0,1,5.142-1.069,15.387,15.387,0,0,1,5.807,1.04,11.885,11.885,0,0,1,4.333,2.947,12.822,12.822,0,0,1,2.685,4.592,18.5,18.5,0,0,1,.925,6.037c0,.54-.019,1.01-.058,1.415a2.985,2.985,0,0,1-.117.722H468.457a7.338,7.338,0,0,0,.695,2.946,7.707,7.707,0,0,0,1.676,2.312,7.594,7.594,0,0,0,2.4,1.531,7.693,7.693,0,0,0,2.916.548,7.018,7.018,0,0,0,4.71-1.415,7.762,7.762,0,0,0,2.339-3.5Zm-6.412-9.128a7.475,7.475,0,0,0-.491-2.34,5.654,5.654,0,0,0-1.3-1.992A6.416,6.416,0,0,0,478.51,295a7.906,7.906,0,0,0-3-.521,6.879,6.879,0,0,0-2.8.55,6.609,6.609,0,0,0-2.107,1.444,7.249,7.249,0,0,0-1.387,2.022,6.059,6.059,0,0,0-.579,2.224Z"
            transform="translate(-11.346 -1.491)" fill="#3459a5" />
    </g>
</svg>