<svg fill="none" height="110" viewBox="0 0 413 110" width="413" xmlns="http://www.w3.org/2000/svg" xmlns:xlink="http://www.w3.org/1999/xlink"><linearGradient id="a"><stop offset="0" stop-color="#6366f1"/><stop offset="1" stop-color="#2563eb"/></linearGradient><linearGradient id="b" gradientUnits="userSpaceOnUse" x1="58.4065" x2="58.4065" xlink:href="#a" y1="37.8501" y2="71.4501"/><linearGradient id="c" gradientUnits="userSpaceOnUse" x1="43.0059" x2="43.0059" xlink:href="#a" y1="45.4502" y2="71.4502"/><linearGradient id="d" gradientUnits="userSpaceOnUse" x1="27.6054" x2="27.6054" xlink:href="#a" y1="53.05" y2="71.4501"/><path d="m0 0h413v110h-413z" fill="#fff"/><g fill="#000"><path d="m92.3762 86.1501c-3.5466 0-6.65-.6533-9.31-1.96-2.66-1.26-4.8066-3.0567-6.44-5.39l5.04-5.04c1.3534 1.68 2.8934 2.94 4.62 3.78 1.7267.84 3.8034 1.26 6.23 1.26 3.0334 0 5.4367-.7933 7.21-2.38 1.7738-1.54 2.6598-3.6633 2.6598-6.37v-8.26l1.33-7.42-1.33-7.49v-9.03h7.7v32.2c0 3.22-.746 6.02-2.24 8.4-1.493 2.4267-3.57 4.3167-6.23 5.67-2.6598 1.3533-5.7398 2.03-9.2398 2.03zm-.35-15.4c-2.9866 0-5.6933-.7233-8.12-2.17-2.38-1.4933-4.27-3.5233-5.67-6.09-1.3533-2.5667-2.03-5.4367-2.03-8.61s.6767-6.02 2.03-8.54c1.4-2.52 3.29-4.5033 5.67-5.95 2.4267-1.4933 5.1334-2.24 8.12-2.24 2.66 0 4.9934.5367 7 1.61 2.0068 1.0733 3.5698 2.5667 4.6898 4.48 1.12 1.8667 1.68 4.06 1.68 6.58v8.26c0 2.4733-.583 4.6667-1.75 6.58-1.12 1.9133-2.683 3.4067-4.6898 4.48-2.0066 1.0733-4.3166 1.61-6.93 1.61zm1.54-7.28c1.8667 0 3.5-.3967 4.9-1.19s2.4738-1.89 3.2198-3.29c.794-1.4467 1.19-3.1267 1.19-5.04s-.396-3.57-1.19-4.97c-.746-1.4467-1.8198-2.5667-3.2198-3.36s-3.0333-1.19-4.9-1.19c-1.8666 0-3.5233.3967-4.97 1.19-1.4.7933-2.4966 1.9133-3.29 3.36-.7933 1.4-1.19 3.0567-1.19 4.97 0 1.8667.3967 3.5233 1.19 4.97.7934 1.4467 1.89 2.5667 3.29 3.36 1.4467.7933 3.1034 1.19 4.97 1.19z"/><path d="m118.64 71.4501v-33.6h7.7v33.6zm7.7-18.69-2.66-1.33c0-4.2467.933-7.6767 2.8-10.29 1.913-2.66 4.783-3.99 8.61-3.99 1.68 0 3.197.3033 4.55.91s2.613 1.5867 3.78 2.94l-5.04 5.18c-.607-.6533-1.283-1.12-2.03-1.4s-1.61-.42-2.59-.42c-2.147 0-3.92.6767-5.32 2.03s-2.1 3.4767-2.1 6.37z"/><path d="m160.19 72.1501c-3.033 0-5.786-.77-8.26-2.31-2.426-1.54-4.363-3.6167-5.81-6.23-1.4-2.66-2.1-5.6233-2.1-8.89 0-3.3133.7-6.2767 2.1-8.89 1.447-2.66 3.384-4.76 5.81-6.3 2.474-1.5867 5.227-2.38 8.26-2.38 2.567 0 4.83.56 6.79 1.68 2.007 1.0733 3.594 2.5667 4.76 4.48 1.167 1.9133 1.75 4.0833 1.75 6.51v9.66c0 2.4267-.583 4.5967-1.75 6.51-1.12 1.9133-2.683 3.43-4.69 4.55-2.006 1.0733-4.293 1.61-6.86 1.61zm1.26-7.28c2.847 0 5.134-.9567 6.86-2.87 1.774-1.9133 2.66-4.3633 2.66-7.35 0-2.0067-.396-3.78-1.19-5.32-.793-1.54-1.913-2.73-3.36-3.57-1.4-.8867-3.056-1.33-4.97-1.33-1.866 0-3.523.4433-4.97 1.33-1.4.84-2.52 2.03-3.36 3.57-.793 1.54-1.19 3.3133-1.19 5.32s.397 3.78 1.19 5.32c.84 1.54 1.96 2.7533 3.36 3.64 1.447.84 3.104 1.26 4.97 1.26zm9.03 6.58v-9.03l1.33-8.19-1.33-8.12v-8.26h7.7v33.6z"/><path d="m204.716 72.1501c-2.567 0-4.853-.5367-6.86-1.61-2.007-1.12-3.593-2.6367-4.76-4.55-1.12-1.9133-1.68-4.0833-1.68-6.51v-9.66c0-2.4267.583-4.5967 1.75-6.51s2.753-3.4067 4.76-4.48c2.007-1.12 4.27-1.68 6.79-1.68 3.033 0 5.763.7933 8.19 2.38 2.473 1.54 4.41 3.64 5.81 6.3 1.447 2.6133 2.17 5.5767 2.17 8.89 0 3.2667-.723 6.23-2.17 8.89-1.4 2.6133-3.337 4.69-5.81 6.23-2.427 1.54-5.157 2.31-8.19 2.31zm-1.26-7.28c1.867 0 3.5-.42 4.9-1.26 1.447-.8867 2.567-2.1 3.36-3.64.84-1.54 1.26-3.3133 1.26-5.32s-.42-3.78-1.26-5.32c-.793-1.54-1.913-2.73-3.36-3.57-1.4-.8867-3.033-1.33-4.9-1.33s-3.523.4433-4.97 1.33c-1.447.84-2.567 2.03-3.36 3.57s-1.19 3.3133-1.19 5.32.397 3.78 1.19 5.32 1.913 2.7533 3.36 3.64c1.447.84 3.103 1.26 4.97 1.26zm-16.73 20.58v-47.6h7.7v9.03l-1.33 8.19 1.33 8.12v22.26z"/><path d="m250.361 71.4501v-19.39c0-2.24-.723-4.0833-2.17-5.53-1.4-1.4467-3.22-2.17-5.46-2.17-1.493 0-2.823.3267-3.99.98-1.166.6533-2.076 1.5633-2.73 2.73-.653 1.1667-.98 2.4967-.98 3.99l-3.01-1.68c0-2.5667.56-4.83 1.68-6.79 1.12-2.0067 2.66-3.57 4.62-4.69 2.007-1.1667 4.247-1.75 6.72-1.75 2.52 0 4.76.56 6.72 1.68s3.5 2.6833 4.62 4.69c1.12 1.96 1.68 4.2467 1.68 6.86v21.07zm-23.03 0v-47.5875h7.7v47.5875z"/><path d="m265.956 71.4501v-33.6h7.7v33.6z"/><path d="m287.402 71.4501v-47.6h7.7v47.6zm-8.05-26.6v-7h23.8v7z"/><path d="m308.817 71.4501v-33.6h7.7v33.6z"/><path d="m359.011 72.1501c-3.127 0-5.95-.7467-8.47-2.24-2.474-1.4933-4.434-3.5-5.88-6.02-1.447-2.5667-2.17-5.46-2.17-8.68 0-3.1733.723-6.0433 2.17-8.61 1.446-2.5667 3.406-4.5967 5.88-6.09 2.473-1.54 5.25-2.31 8.33-2.31 2.52 0 4.76.49 6.72 1.47 2.006.9333 3.64 2.2633 4.9 3.99 1.306 1.7267 2.146 3.78 2.52 6.16v10.64c-.42 2.38-1.284 4.4567-2.59 6.23-1.26 1.7267-2.87 3.08-4.83 4.06-1.914.9333-4.107 1.4-6.58 1.4zm.49-3.36c3.733 0 6.696-1.2367 8.89-3.71 2.24-2.52 3.36-5.81 3.36-9.87 0-2.7533-.514-5.1333-1.54-7.14-.98-2.0533-2.404-3.64-4.27-4.76-1.867-1.1667-4.037-1.75-6.51-1.75-2.567 0-4.854.5833-6.86 1.75-1.96 1.1667-3.524 2.7767-4.69 4.83-1.12 2.0533-1.68 4.3867-1.68 7 0 2.66.56 5.0167 1.68 7.07 1.166 2.0533 2.753 3.6633 4.76 4.83 2.006 1.1667 4.293 1.75 6.86 1.75zm12.11 2.66v-8.75l.77-7.98-.77-7.91v-7.91h3.57v32.55z"/><path d="m385.745 71.4501v-32.55h3.5v32.55z"/><path d="m265.956 23.8501v7.6h7.7v-7.6z"/><path d="m308.815 23.8501v7.6h7.7v-7.6z"/><path d="m385.745 28.05h3.5v3.4h-3.5z"/><path d="m327.956 65.4556h6v6h-6z"/></g><path d="m54.5565 71.4501v-33.6h7.7v33.6z" fill="url(#b)"/><path d="m39.1559 71.4502v-26h7.7v26z" fill="url(#c)"/><path d="m23.7557 39.05v7.6h7.7v-7.6z" fill="#6366f1"/><path d="m23.7554 71.4501v-18.4001h7.7v18.4001z" fill="url(#d)"/><path d="m54.5567 23.8501v7.6h7.7v-7.6z" fill="#6366f1"/><path d="m39.1562 31.4502v7.6h7.7v-7.6z" fill="#6366f1"/></svg>