<svg viewBox="0 0 271.02 50.64" xmlns="http://www.w3.org/2000/svg"><g fill="#f15c5a"><path d="m53.1 11.62c-.79-5-2.64-7.7-6.13-9.5-2.79-1.54-14.45-2.25-20.77-2.12-6.31 0-16.81.6-19.6 2.12-3.49 1.8-5.33 4.48-6.13 9.5a91.48 91.48 0 0 0 -.47 9.49 91.08 91.08 0 0 0 .47 9.47c.8 5 2.64 7.71 6.13 9.52 2.79 1.51 13.29 2.17 19.6 2.09h.7l-2.64-7.08c-4.64 0-11.4.06-13-.62-2.34-1-3.47-2.78-3.88-6.44-.17-1.59-.18-5-.21-6.95s0-5.37.21-7c.41-3.66 1.54-5.45 3.88-6.44 1.86-.78 10.77-.6 15.11-.62s14.06-.16 15.92.62c2.34 1 3.47 2.78 3.88 6.44.17 1.6.18 5.06.21 6.94s0 5.38-.21 7c-.41 3.66-1.54 5.45-3.88 6.44-1.35.57-6.84.63-11.41.63l.3.79 5.49 14.72 4.19-9.17a20.88 20.88 0 0 0 6.14-1.35c3.49-1.81 5.33-4.49 6.13-9.52a91.62 91.62 0 0 0 .47-9.49 91.36 91.36 0 0 0 -.47-9.47"/><path d="m86.21 35v-12.73c0-2.53-.67-4-3.16-4-2.8 0-4 3-4 5.52v11.21h-4.92v-12.73c0-2.53-.67-4-3.16-4-2.81 0-4.07 3-4.07 5.52v11.21h-4.9v-20.51h4.11l.4 2.73a6.56 6.56 0 0 1 5.84-3.22 6.08 6.08 0 0 1 5.88 3.36 6.85 6.85 0 0 1 6.2-3.36c4.39 0 6.68 2.92 6.68 7.19v13.81z"/><path d="m103.82 38.54c-1 2.69-2.73 5.14-6.32 5.14a13.72 13.72 0 0 1 -3.79-.52v-4.1a12.11 12.11 0 0 0 2.76.35 2.35 2.35 0 0 0 2.37-1.54l1.16-2.87-8.1-20.5h5.41l5.37 14.85 5.13-14.85h5z"/><path d="m114.71 7.03h5.17v28h-5.17z"/><path d="m136.71 35v-12.57c0-2.41-.79-3.87-3.4-3.87a3.86 3.86 0 0 0 -3.55 2.61 14.31 14.31 0 0 0 -.67 5.49v8.34h-4.94v-20.51h4.15l.35 2.65a6.78 6.78 0 0 1 6-3.16c4.39 0 6.95 3.08 6.95 7.35v13.67z"/><path d="m153.35 35.31c-4.15 0-6.21-2.37-6.21-6.32v-10.43h-3.75v-4.07h3.75v-5.21l4.94-1.22v6.43h5.17v4.07h-5.17v10c0 1.58.71 2.26 2.29 2.26a26.16 26.16 0 0 0 3.2-.2v4.14a16.51 16.51 0 0 1 -4.22.56"/><path d="m171.22 19.11a4.13 4.13 0 0 0 -3.12-1.18 4.21 4.21 0 0 0 -3.44 1.58 5 5 0 0 0 -1.06 3.2h8.88a5.36 5.36 0 0 0 -1.26-3.6m6.16 7.19h-13.74a5.42 5.42 0 0 0 1.5 4 4.34 4.34 0 0 0 3 1.26 3.84 3.84 0 0 0 3-1 3.75 3.75 0 0 0 1-1.74h4.74a8.17 8.17 0 0 1 -1.74 3.79 8.82 8.82 0 0 1 -6.91 2.88 9 9 0 0 1 -6.45-2.49 11.16 11.16 0 0 1 -3.16-8.22 11.52 11.52 0 0 1 3-8.21 8.91 8.91 0 0 1 6.52-2.57 8.69 8.69 0 0 1 7.5 3.79 11.54 11.54 0 0 1 1.78 7.15s0 .95 0 1.38"/><path d="m190.69 18.88c-3.47 0-5.29 2.48-5.29 5.8v10.32h-5v-20.5h4.18l.44 3.07c.95-2.37 3.39-3.35 5.81-3.35a10 10 0 0 1 1.53.12v4.74a8.14 8.14 0 0 0 -1.7-.2"/><path d="m205.82 35.03h-5.25l-7.62-20.54h5.21l5.13 14.46 4.86-14.46h5.1z"/><path d="m215.06 14.49h5v20.51h-5zm-.16-7.93h5.29v5.09h-5.29z"/><path d="m235.66 19.11a4.13 4.13 0 0 0 -3.12-1.18 4.23 4.23 0 0 0 -3.44 1.58 5 5 0 0 0 -1.06 3.2h8.88a5.36 5.36 0 0 0 -1.26-3.6m6.16 7.19h-13.74a5.42 5.42 0 0 0 1.5 4 4.34 4.34 0 0 0 3 1.26 3.85 3.85 0 0 0 3-1 3.75 3.75 0 0 0 1-1.74h4.73a8.05 8.05 0 0 1 -1.73 3.79 8.81 8.81 0 0 1 -6.92 2.88 9 9 0 0 1 -6.44-2.49 11.16 11.16 0 0 1 -3.16-8.22 11.52 11.52 0 0 1 3-8.21 8.91 8.91 0 0 1 6.52-2.57 8.69 8.69 0 0 1 7.5 3.79 11.6 11.6 0 0 1 1.78 7.15s0 .95 0 1.38"/><path d="m266 35.03h-4.58l-4.66-13.86-4.58 13.86h-4.58l-5.21-20.54h4.78l3.27 13.47 4.31-13.27h4.06l4.35 13.23 3.16-13.43h4.7z"/></g></svg>