<svg fill="none" height="197" viewBox="0 0 380 197" width="380" xmlns="http://www.w3.org/2000/svg" xmlns:xlink="http://www.w3.org/1999/xlink"><clipPath id="a"><path d="m31 59h317.943v78h-317.943z"/></clipPath><path d="m0 0h380v197h-380z" fill="#000"/><g clip-path="url(#a)"><path d="m66.8681 79.6659h-.0526v16.0663h.0526c3.3617 0 6.5856 1.3282 8.9627 3.6924 2.377 2.3644 3.7125 5.5704 3.7125 8.9144 0 3.343-1.3355 6.55-3.7125 8.914-2.3771 2.364-5.601 3.692-8.9627 3.692h-.0526v16.061h.0526c3.7851 0 7.5332-.742 11.0301-2.182 3.497-1.441 6.6744-3.553 9.3509-6.215s4.7996-5.822 6.2481-9.3 2.194-7.206 2.194-10.97c0-3.765-.7455-7.493-2.194-10.9707-1.4485-3.478-3.5716-6.6383-6.2481-9.3002-2.6765-2.662-5.8539-4.7736-9.3509-6.2143-3.4969-1.4406-7.245-2.1821-11.0301-2.1821z" fill="#fff"/><path d="m59.8231 116.334h.0526v-16.049h-.0526c-3.3617 0-6.5856-1.328-8.9627-3.6921-2.377-2.3642-3.7124-5.5707-3.7124-8.9142s1.3354-6.55 3.7124-8.9142c2.3771-2.3642 5.601-3.6923 8.9627-3.6923h.0526v-16.0722h-.0526c-7.6444 0-14.9756 3.0203-20.381 8.3964s-8.4421 12.6677-8.4421 20.2707c0 7.6029 3.0367 14.8949 8.4421 20.2709s12.7366 8.396 20.381 8.396z" fill="#ffcb05"/><g fill="#fff"><path d="m144.503 79.7822h9.314v36.4938h-9.314z"/><path d="m213.86 79.5438c10.559 0 17.75 7.879 17.75 19.404v2.0412h-26.309c.585 4.454 4.18 8.17 10.196 8.17 3.298 0 7.185-1.309 9.46-3.489l4.092 5.983c-3.508 3.21-9.097 4.89-14.616 4.89-10.781 0-18.919-7.222-18.919-18.5314.012-10.2224 7.565-18.4678 18.346-18.4678zm-8.729 15.1766h17.458c-.222-3.3551-2.567-7.8093-8.729-7.8093-5.794 0-8.29 4.303-8.729 7.8093z"/><path d="m261.778 94.3541c0-4.8903-2.573-6.5649-6.531-6.5649-1.578.0172-3.13.4024-4.531 1.1244-1.401.7221-2.613 1.761-3.537 3.0332v24.3872h-9.313v-36.5751h9.313v5.2333c1.552-1.7461 3.465-3.1372 5.609-4.0778 2.143-.9405 4.466-1.4081 6.809-1.3706 7.776 0 11.518 4.3785 11.518 11.2342v25.556h-9.337z"/><path d="m331.193 79.5438c10.559 0 17.75 7.879 17.75 19.404v2.0412h-26.309c.584 4.454 4.18 8.17 10.196 8.17 3.297 0 7.185-1.309 9.46-3.489l4.092 5.983c-3.508 3.21-9.097 4.89-14.616 4.89-10.781 0-18.919-7.222-18.919-18.5314.011-10.2224 7.553-18.4678 18.346-18.4678zm-8.729 15.1766h17.458c-.228-3.3551-2.567-7.8093-8.729-7.8093-5.794 0-8.29 4.303-8.729 7.8093z"/><path d="m111.132 106.03c1.818.96 7.016 3.164 11.389 3.164 3.554 0 5.519-.972 5.519-3.164 0-2.477-2.339-3.558-6.373-4.361-6.092-1.163-14.353-3.2503-14.353-11.6295 0-5.9078 4.017-10.3446 15.201-10.3446 4.987.0163 9.871 1.4115 14.107 4.0297l-3.759 6.28c-3.031-2.1068-6.633-3.2484-10.331-3.2737-3.572 0-5.56 1.2385-5.554 3.2795 0 2.262 2.041 3.0528 5.513 3.5645 6.133.9071 15.201 3.7215 15.201 12.4791 0 6.396-5.378 10.298-15.201 10.298-6.156 0-12.225-1.844-15.2-3.827z"/><path d="m163.808 106.03c1.813.96 7.016 3.164 11.389 3.164 3.549 0 5.514-.972 5.514-3.164 0-2.477-2.339-3.558-6.373-4.361-6.086-1.163-14.353-3.2503-14.353-11.6295 0-5.9078 4.016-10.3446 15.201-10.3446 4.987.0142 9.872 1.4095 14.107 4.0297l-3.759 6.28c-3.03-2.1074-6.633-3.2491-10.331-3.2737-3.572 0-5.56 1.2385-5.554 3.2795 0 2.262 2.041 3.0528 5.519 3.5645 6.127.9071 15.201 3.7215 15.201 12.4791 0 6.396-5.373 10.298-15.201 10.298-6.162 0-12.225-1.844-15.201-3.827z"/><path d="m281.135 106.03c1.819.96 7.016 3.164 11.395 3.164 3.549 0 5.513-.972 5.513-3.164 0-2.477-2.338-3.558-6.372-4.361-6.086-1.163-14.353-3.2503-14.353-11.6295 0-5.9078 4.016-10.3446 15.201-10.3446 4.987.0142 9.872 1.4095 14.107 4.0297l-3.759 6.28c-3.031-2.1074-6.633-3.2491-10.331-3.2737-3.572 0-5.56 1.2385-5.554 3.2795 0 2.262 2.04 3.0528 5.513 3.5645 6.133.9071 15.201 3.7215 15.201 12.4791 0 6.396-5.373 10.298-15.201 10.298-6.156 0-12.225-1.844-15.201-3.827z"/></g><path d="m149.157 75.0605c2.574 0 4.66-2.0749 4.66-4.6344s-2.086-4.6344-4.66-4.6344c-2.573 0-4.659 2.0749-4.659 4.6344s2.086 4.6344 4.659 4.6344z" fill="#ffcb05"/></g></svg>