<svg width="380" height="197" viewBox="0 0 380 197" fill="none" xmlns="http://www.w3.org/2000/svg">
<rect width="380" height="197" fill="black"/>
<g clip-path="url(#clip0_2_109)">
<path d="M66.8681 79.6659H66.8155V95.7322H66.8681C70.2298 95.7322 73.4537 97.0604 75.8308 99.4246C78.2078 101.789 79.5433 104.995 79.5433 108.339C79.5433 111.682 78.2078 114.889 75.8308 117.253C73.4537 119.617 70.2298 120.945 66.8681 120.945H66.8155V137.006H66.8681C70.6532 137.006 74.4013 136.264 77.8982 134.824C81.3952 133.383 84.5726 131.271 87.2491 128.609C89.9256 125.947 92.0487 122.787 93.4972 119.309C94.9457 115.831 95.6912 112.103 95.6912 108.339C95.6912 104.574 94.9457 100.846 93.4972 97.3683C92.0487 93.8903 89.9256 90.73 87.2491 88.0681C84.5726 85.4061 81.3952 83.2945 77.8982 81.8538C74.4013 80.4132 70.6532 79.6717 66.8681 79.6717V79.6659Z" fill="white"/>
<path d="M59.8231 116.334H59.8757V100.285H59.8231C56.4614 100.285 53.2375 98.957 50.8604 96.5929C48.4834 94.2287 47.148 91.0222 47.148 87.6787C47.148 84.3352 48.4834 81.1287 50.8604 78.7645C53.2375 76.4003 56.4614 75.0722 59.8231 75.0722H59.8757V59H59.8231C52.1787 59 44.8475 62.0203 39.4421 67.3964C34.0367 72.7725 31 80.0641 31 87.6671C31 95.27 34.0367 102.562 39.4421 107.938C44.8475 113.314 52.1787 116.334 59.8231 116.334V116.334Z" fill="#FFCB05"/>
<path d="M144.503 79.7822H153.817V116.276H144.503V79.7822Z" fill="white"/>
<path d="M213.86 79.5438C224.419 79.5438 231.61 87.4228 231.61 98.9478V100.989H205.301C205.886 105.443 209.481 109.159 215.497 109.159C218.795 109.159 222.682 107.85 224.957 105.67L229.049 111.653C225.541 114.863 219.952 116.543 214.433 116.543C203.652 116.543 195.514 109.321 195.514 98.0116C195.526 87.7892 203.079 79.5438 213.86 79.5438ZM205.131 94.7204H222.589C222.367 91.3653 220.022 86.9111 213.86 86.9111C208.066 86.9111 205.57 91.2141 205.131 94.7204Z" fill="white"/>
<path d="M261.778 94.3541C261.778 89.4638 259.205 87.7892 255.247 87.7892C253.669 87.8064 252.117 88.1916 250.716 88.9136C249.315 89.6357 248.103 90.6746 247.179 91.9468V116.334H237.866V79.7589H247.179V84.9922C248.731 83.2461 250.644 81.855 252.788 80.9144C254.931 79.9739 257.254 79.5063 259.597 79.5438C267.373 79.5438 271.115 83.9223 271.115 90.778V116.334H261.778V94.3541Z" fill="white"/>
<path d="M331.193 79.5438C341.752 79.5438 348.943 87.4228 348.943 98.9478V100.989H322.634C323.218 105.443 326.814 109.159 332.83 109.159C336.127 109.159 340.015 107.85 342.29 105.67L346.382 111.653C342.874 114.863 337.285 116.543 331.766 116.543C320.985 116.543 312.847 109.321 312.847 98.0116C312.858 87.7892 320.4 79.5438 331.193 79.5438ZM322.464 94.7204H339.922C339.694 91.3653 337.355 86.9111 331.193 86.9111C325.399 86.9111 322.903 91.2141 322.464 94.7204V94.7204Z" fill="white"/>
<path d="M111.132 106.03C112.95 106.99 118.148 109.194 122.521 109.194C126.075 109.194 128.04 108.222 128.04 106.03C128.04 103.553 125.701 102.472 121.667 101.669C115.575 100.506 107.314 98.4187 107.314 90.0395C107.314 84.1317 111.331 79.6949 122.515 79.6949C127.502 79.7112 132.386 81.1064 136.622 83.7246L132.863 90.0046C129.832 87.8978 126.23 86.7562 122.532 86.7309C118.96 86.7309 116.972 87.9694 116.978 90.0104C116.978 92.2724 119.019 93.0632 122.491 93.5749C128.624 94.482 137.692 97.2964 137.692 106.054C137.692 112.45 132.314 116.352 122.491 116.352C116.335 116.352 110.266 114.508 107.291 112.525L111.132 106.03Z" fill="white"/>
<path d="M163.808 106.03C165.621 106.99 170.824 109.194 175.197 109.194C178.746 109.194 180.711 108.222 180.711 106.03C180.711 103.553 178.372 102.472 174.338 101.669C168.252 100.506 159.985 98.4187 159.985 90.0395C159.985 84.1317 164.001 79.6949 175.186 79.6949C180.173 79.7091 185.058 81.1044 189.293 83.7246L185.534 90.0046C182.504 87.8972 178.901 86.7555 175.203 86.7309C171.631 86.7309 169.643 87.9694 169.649 90.0104C169.649 92.2724 171.69 93.0632 175.168 93.5749C181.295 94.482 190.369 97.2964 190.369 106.054C190.369 112.45 184.996 116.352 175.168 116.352C169.006 116.352 162.943 114.508 159.967 112.525L163.808 106.03Z" fill="white"/>
<path d="M281.135 106.03C282.954 106.99 288.151 109.194 292.53 109.194C296.079 109.194 298.043 108.222 298.043 106.03C298.043 103.553 295.705 102.472 291.671 101.669C285.585 100.506 277.318 98.4187 277.318 90.0395C277.318 84.1317 281.334 79.6949 292.519 79.6949C297.506 79.7091 302.391 81.1044 306.626 83.7246L302.867 90.0046C299.836 87.8972 296.234 86.7555 292.536 86.7309C288.964 86.7309 286.976 87.9694 286.982 90.0104C286.982 92.2724 289.022 93.0632 292.495 93.5749C298.628 94.482 307.696 97.2964 307.696 106.054C307.696 112.45 302.323 116.352 292.495 116.352C286.339 116.352 280.27 114.508 277.294 112.525L281.135 106.03Z" fill="white"/>
<path d="M149.157 75.0605C151.731 75.0605 153.817 72.9856 153.817 70.4261C153.817 67.8666 151.731 65.7917 149.157 65.7917C146.584 65.7917 144.498 67.8666 144.498 70.4261C144.498 72.9856 146.584 75.0605 149.157 75.0605Z" fill="#FFCB05"/>
</g>
<defs>
<clipPath id="clip0_2_109">
<rect width="317.943" height="78" fill="white" transform="translate(31 59)"/>
</clipPath>
</defs>
</svg>
